G04 #@! TF.GenerationSoftware,KiCad,Pcbnew,(6.0.10-0)*
G04 #@! TF.CreationDate,2023-02-08T15:37:40+09:00*
G04 #@! TF.ProjectId,MEZZ180RAM,4d455a5a-3138-4305-9241-4d2e6b696361,A*
G04 #@! TF.SameCoordinates,PX5f5e100PY8f0d180*
G04 #@! TF.FileFunction,Soldermask,Top*
G04 #@! TF.FilePolarity,Negative*
%FSLAX46Y46*%
G04 Gerber Fmt 4.6, Leading zero omitted, Abs format (unit mm)*
G04 Created by KiCad (PCBNEW (6.0.10-0)) date 2023-02-08 15:37:40*
%MOMM*%
%LPD*%
G01*
G04 APERTURE LIST*
%ADD10C,1.600000*%
%ADD11O,1.600000X1.600000*%
%ADD12R,1.600000X1.600000*%
%ADD13R,1.422400X1.422400*%
%ADD14C,1.422400*%
%ADD15R,1.700000X1.700000*%
%ADD16O,1.700000X1.700000*%
%ADD17C,0.605000*%
G04 APERTURE END LIST*
D10*
X31115000Y13970000D03*
D11*
X41275000Y13970000D03*
D12*
X6985000Y50165000D03*
D11*
X6985000Y47625000D03*
X6985000Y45085000D03*
X6985000Y42545000D03*
X6985000Y40005000D03*
X6985000Y37465000D03*
X6985000Y34925000D03*
X6985000Y32385000D03*
X6985000Y29845000D03*
X6985000Y27305000D03*
X6985000Y24765000D03*
X6985000Y22225000D03*
X6985000Y19685000D03*
X6985000Y17145000D03*
X6985000Y14605000D03*
X6985000Y12065000D03*
X22225000Y12065000D03*
X22225000Y14605000D03*
X22225000Y17145000D03*
X22225000Y19685000D03*
X22225000Y22225000D03*
X22225000Y24765000D03*
X22225000Y27305000D03*
X22225000Y29845000D03*
X22225000Y32385000D03*
X22225000Y34925000D03*
X22225000Y37465000D03*
X22225000Y40005000D03*
X22225000Y42545000D03*
X22225000Y45085000D03*
X22225000Y47625000D03*
X22225000Y50165000D03*
D10*
X46335000Y17145000D03*
X43835000Y17145000D03*
X31115000Y17145000D03*
D11*
X41275000Y17145000D03*
D13*
X45085000Y47625000D03*
D14*
X45085000Y45085000D03*
X42545000Y47625000D03*
X42545000Y45085000D03*
X40005000Y47625000D03*
X40005000Y45085000D03*
X37465000Y47625000D03*
X37465000Y45085000D03*
X34925000Y47625000D03*
X32385000Y45085000D03*
X34925000Y45085000D03*
X32385000Y42545000D03*
X34925000Y42545000D03*
X32385000Y40005000D03*
X34925000Y40005000D03*
X32385000Y37465000D03*
X34925000Y37465000D03*
X32385000Y34925000D03*
X34925000Y34925000D03*
X32385000Y32385000D03*
X34925000Y32385000D03*
X32385000Y29845000D03*
X34925000Y29845000D03*
X32385000Y27305000D03*
X34925000Y27305000D03*
X32385000Y24765000D03*
X34925000Y22225000D03*
X34925000Y24765000D03*
X37465000Y22225000D03*
X37465000Y24765000D03*
X40005000Y22225000D03*
X40005000Y24765000D03*
X42545000Y22225000D03*
X42545000Y24765000D03*
X45085000Y22225000D03*
X45085000Y24765000D03*
X47625000Y22225000D03*
X47625000Y24765000D03*
X50165000Y22225000D03*
X50165000Y24765000D03*
X52705000Y22225000D03*
X52705000Y24765000D03*
X55245000Y22225000D03*
X57785000Y24765000D03*
X55245000Y24765000D03*
X57785000Y27305000D03*
X55245000Y27305000D03*
X57785000Y29845000D03*
X55245000Y29845000D03*
X57785000Y32385000D03*
X55245000Y32385000D03*
X57785000Y34925000D03*
X55245000Y34925000D03*
X57785000Y37465000D03*
X55245000Y37465000D03*
X57785000Y40005000D03*
X55245000Y40005000D03*
X57785000Y42545000D03*
X55245000Y42545000D03*
X57785000Y45085000D03*
X55245000Y47625000D03*
X55245000Y45085000D03*
X52705000Y47625000D03*
X52705000Y45085000D03*
X50165000Y47625000D03*
X50165000Y45085000D03*
X47625000Y47625000D03*
X47625000Y45085000D03*
D10*
X59055000Y17145000D03*
D11*
X48895000Y17145000D03*
D10*
X22205000Y53340000D03*
X19705000Y53340000D03*
D15*
X24765000Y52705000D03*
D16*
X24765000Y50165000D03*
X24765000Y47625000D03*
X24765000Y45085000D03*
X24765000Y42545000D03*
X24765000Y40005000D03*
X24765000Y37465000D03*
X24765000Y34925000D03*
X24765000Y32385000D03*
X24765000Y29845000D03*
X24765000Y27305000D03*
X24765000Y24765000D03*
X24765000Y22225000D03*
X24765000Y19685000D03*
X24765000Y17145000D03*
X24765000Y14605000D03*
X24765000Y12065000D03*
X24765000Y9525000D03*
X24765000Y6985000D03*
X24765000Y4445000D03*
D15*
X4445000Y52705000D03*
D16*
X4445000Y50165000D03*
X4445000Y47625000D03*
X4445000Y45085000D03*
X4445000Y42545000D03*
X4445000Y40005000D03*
X4445000Y37465000D03*
X4445000Y34925000D03*
X4445000Y32385000D03*
X4445000Y29845000D03*
X4445000Y27305000D03*
X4445000Y24765000D03*
X4445000Y22225000D03*
X4445000Y19685000D03*
X4445000Y17145000D03*
X4445000Y14605000D03*
X4445000Y12065000D03*
X4445000Y9525000D03*
X4445000Y6985000D03*
X4445000Y4445000D03*
D17*
X19685000Y50165000D03*
X30226000Y23241000D03*
X37465000Y16383000D03*
X30226000Y28575000D03*
X30226000Y39370000D03*
X57785000Y20320000D03*
X20955000Y8255000D03*
X41275000Y32385000D03*
X36195000Y43815000D03*
X1270000Y1270000D03*
X36195000Y41529000D03*
X27178000Y17145000D03*
X45720000Y9525000D03*
X60960000Y55880000D03*
X33655000Y21082000D03*
X38100000Y31750000D03*
X37465000Y17907000D03*
X55245000Y49276000D03*
X9525000Y37465000D03*
X19685000Y37465000D03*
X27178000Y23241000D03*
X1270000Y27305000D03*
X19685000Y30480000D03*
X51435000Y20320000D03*
X43815000Y43180000D03*
X27178000Y28575000D03*
X30226000Y32385000D03*
X36195000Y48768000D03*
X19685000Y47625000D03*
X27178000Y39370000D03*
X19685000Y27305000D03*
X9525000Y32385000D03*
X43815000Y32385000D03*
X27178000Y14605000D03*
X20955000Y3175000D03*
X9525000Y17145000D03*
X38862000Y26543000D03*
X10160000Y44450000D03*
X38100000Y28575000D03*
X60960000Y9525000D03*
X47625000Y20320000D03*
X1270000Y55880000D03*
X27178000Y21082000D03*
X6985000Y3175000D03*
X9525000Y27305000D03*
X27940000Y1270000D03*
X19685000Y44450000D03*
X41275000Y43180000D03*
X43815000Y37465000D03*
X41275000Y37465000D03*
X27178000Y32385000D03*
X52070000Y27305000D03*
X27178000Y10160000D03*
X27178000Y47625000D03*
X6985000Y8255000D03*
X27178000Y50165000D03*
X11967300Y40738400D03*
X19664100Y16851900D03*
X18967400Y18652500D03*
X43421206Y13034972D03*
X38862000Y30106400D03*
X41243250Y28162250D03*
X45720000Y27150400D03*
X33675400Y11582600D03*
X47321100Y15259000D03*
X13335000Y47925100D03*
X29146500Y24447500D03*
X34417000Y12105800D03*
X33147000Y49403000D03*
X13335000Y50165000D03*
X23495000Y26057600D03*
X23495000Y23495000D03*
M02*
