G04 #@! TF.GenerationSoftware,KiCad,Pcbnew,(6.0.10-0)*
G04 #@! TF.CreationDate,2023-02-08T15:37:40+09:00*
G04 #@! TF.ProjectId,MEZZ180RAM,4d455a5a-3138-4305-9241-4d2e6b696361,A*
G04 #@! TF.SameCoordinates,PX5f5e100PY8f0d180*
G04 #@! TF.FileFunction,Legend,Bot*
G04 #@! TF.FilePolarity,Positive*
%FSLAX46Y46*%
G04 Gerber Fmt 4.6, Leading zero omitted, Abs format (unit mm)*
G04 Created by KiCad (PCBNEW (6.0.10-0)) date 2023-02-08 15:37:40*
%MOMM*%
%LPD*%
G01*
G04 APERTURE LIST*
%ADD10C,0.150000*%
%ADD11C,0.120000*%
G04 APERTURE END LIST*
D10*
X13447380Y33241667D02*
X12447380Y33241667D01*
X13161666Y32908334D01*
X12447380Y32575000D01*
X13447380Y32575000D01*
X12923571Y32098810D02*
X12923571Y31765477D01*
X13447380Y31622620D02*
X13447380Y32098810D01*
X12447380Y32098810D01*
X12447380Y31622620D01*
X12447380Y31289286D02*
X12447380Y30622620D01*
X13447380Y31289286D01*
X13447380Y30622620D01*
X12447380Y30336905D02*
X12447380Y29670239D01*
X13447380Y30336905D01*
X13447380Y29670239D01*
X13447380Y28765477D02*
X13447380Y29336905D01*
X13447380Y29051191D02*
X12447380Y29051191D01*
X12590238Y29146429D01*
X12685476Y29241667D01*
X12733095Y29336905D01*
X12875952Y28194048D02*
X12828333Y28289286D01*
X12780714Y28336905D01*
X12685476Y28384524D01*
X12637857Y28384524D01*
X12542619Y28336905D01*
X12495000Y28289286D01*
X12447380Y28194048D01*
X12447380Y28003572D01*
X12495000Y27908334D01*
X12542619Y27860715D01*
X12637857Y27813096D01*
X12685476Y27813096D01*
X12780714Y27860715D01*
X12828333Y27908334D01*
X12875952Y28003572D01*
X12875952Y28194048D01*
X12923571Y28289286D01*
X12971190Y28336905D01*
X13066428Y28384524D01*
X13256904Y28384524D01*
X13352142Y28336905D01*
X13399761Y28289286D01*
X13447380Y28194048D01*
X13447380Y28003572D01*
X13399761Y27908334D01*
X13352142Y27860715D01*
X13256904Y27813096D01*
X13066428Y27813096D01*
X12971190Y27860715D01*
X12923571Y27908334D01*
X12875952Y28003572D01*
X12447380Y27194048D02*
X12447380Y27098810D01*
X12495000Y27003572D01*
X12542619Y26955953D01*
X12637857Y26908334D01*
X12828333Y26860715D01*
X13066428Y26860715D01*
X13256904Y26908334D01*
X13352142Y26955953D01*
X13399761Y27003572D01*
X13447380Y27098810D01*
X13447380Y27194048D01*
X13399761Y27289286D01*
X13352142Y27336905D01*
X13256904Y27384524D01*
X13066428Y27432143D01*
X12828333Y27432143D01*
X12637857Y27384524D01*
X12542619Y27336905D01*
X12495000Y27289286D01*
X12447380Y27194048D01*
X13447380Y25860715D02*
X12971190Y26194048D01*
X13447380Y26432143D02*
X12447380Y26432143D01*
X12447380Y26051191D01*
X12495000Y25955953D01*
X12542619Y25908334D01*
X12637857Y25860715D01*
X12780714Y25860715D01*
X12875952Y25908334D01*
X12923571Y25955953D01*
X12971190Y26051191D01*
X12971190Y26432143D01*
X13161666Y25479762D02*
X13161666Y25003572D01*
X13447380Y25575000D02*
X12447380Y25241667D01*
X13447380Y24908334D01*
X13447380Y24575000D02*
X12447380Y24575000D01*
X13161666Y24241667D01*
X12447380Y23908334D01*
X13447380Y23908334D01*
X14057380Y44360715D02*
X14057380Y43694048D01*
X15057380Y44360715D01*
X15057380Y43694048D01*
X15057380Y43313096D02*
X14390714Y43313096D01*
X14057380Y43313096D02*
X14105000Y43360715D01*
X14152619Y43313096D01*
X14105000Y43265477D01*
X14057380Y43313096D01*
X14152619Y43313096D01*
X15057380Y42360715D02*
X15057380Y42836905D01*
X14057380Y42836905D01*
X14057380Y41836905D02*
X14057380Y41646429D01*
X14105000Y41551191D01*
X14200238Y41455953D01*
X14390714Y41408334D01*
X14724047Y41408334D01*
X14914523Y41455953D01*
X15009761Y41551191D01*
X15057380Y41646429D01*
X15057380Y41836905D01*
X15009761Y41932143D01*
X14914523Y42027381D01*
X14724047Y42075000D01*
X14390714Y42075000D01*
X14200238Y42027381D01*
X14105000Y41932143D01*
X14057380Y41836905D01*
X14105000Y40455953D02*
X14057380Y40551191D01*
X14057380Y40694048D01*
X14105000Y40836905D01*
X14200238Y40932143D01*
X14295476Y40979762D01*
X14485952Y41027381D01*
X14628809Y41027381D01*
X14819285Y40979762D01*
X14914523Y40932143D01*
X15009761Y40836905D01*
X15057380Y40694048D01*
X15057380Y40598810D01*
X15009761Y40455953D01*
X14962142Y40408334D01*
X14628809Y40408334D01*
X14628809Y40598810D01*
X14057380Y39313096D02*
X14057380Y38646429D01*
X15057380Y39313096D01*
X15057380Y38646429D01*
X15057380Y37741667D02*
X15057380Y38313096D01*
X15057380Y38027381D02*
X14057380Y38027381D01*
X14200238Y38122620D01*
X14295476Y38217858D01*
X14343095Y38313096D01*
X14485952Y37170239D02*
X14438333Y37265477D01*
X14390714Y37313096D01*
X14295476Y37360715D01*
X14247857Y37360715D01*
X14152619Y37313096D01*
X14105000Y37265477D01*
X14057380Y37170239D01*
X14057380Y36979762D01*
X14105000Y36884524D01*
X14152619Y36836905D01*
X14247857Y36789286D01*
X14295476Y36789286D01*
X14390714Y36836905D01*
X14438333Y36884524D01*
X14485952Y36979762D01*
X14485952Y37170239D01*
X14533571Y37265477D01*
X14581190Y37313096D01*
X14676428Y37360715D01*
X14866904Y37360715D01*
X14962142Y37313096D01*
X15009761Y37265477D01*
X15057380Y37170239D01*
X15057380Y36979762D01*
X15009761Y36884524D01*
X14962142Y36836905D01*
X14866904Y36789286D01*
X14676428Y36789286D01*
X14581190Y36836905D01*
X14533571Y36884524D01*
X14485952Y36979762D01*
X14057380Y36170239D02*
X14057380Y36075001D01*
X14105000Y35979762D01*
X14152619Y35932143D01*
X14247857Y35884524D01*
X14438333Y35836905D01*
X14676428Y35836905D01*
X14866904Y35884524D01*
X14962142Y35932143D01*
X15009761Y35979762D01*
X15057380Y36075001D01*
X15057380Y36170239D01*
X15009761Y36265477D01*
X14962142Y36313096D01*
X14866904Y36360715D01*
X14676428Y36408334D01*
X14438333Y36408334D01*
X14247857Y36360715D01*
X14152619Y36313096D01*
X14105000Y36265477D01*
X14057380Y36170239D01*
X15057380Y34646429D02*
X14057380Y34646429D01*
X14771666Y34313096D01*
X14057380Y33979762D01*
X15057380Y33979762D01*
X15009761Y33122620D02*
X15057380Y33217858D01*
X15057380Y33408334D01*
X15009761Y33503572D01*
X14914523Y33551191D01*
X14533571Y33551191D01*
X14438333Y33503572D01*
X14390714Y33408334D01*
X14390714Y33217858D01*
X14438333Y33122620D01*
X14533571Y33075001D01*
X14628809Y33075001D01*
X14724047Y33551191D01*
X14390714Y32741667D02*
X14390714Y32217858D01*
X15057380Y32741667D01*
X15057380Y32217858D01*
X14390714Y31932143D02*
X14390714Y31408334D01*
X15057380Y31932143D01*
X15057380Y31408334D01*
X15057380Y30598810D02*
X14533571Y30598810D01*
X14438333Y30646429D01*
X14390714Y30741667D01*
X14390714Y30932143D01*
X14438333Y31027381D01*
X15009761Y30598810D02*
X15057380Y30694048D01*
X15057380Y30932143D01*
X15009761Y31027381D01*
X14914523Y31075001D01*
X14819285Y31075001D01*
X14724047Y31027381D01*
X14676428Y30932143D01*
X14676428Y30694048D01*
X14628809Y30598810D01*
X14390714Y30122620D02*
X15057380Y30122620D01*
X14485952Y30122620D02*
X14438333Y30075001D01*
X14390714Y29979762D01*
X14390714Y29836905D01*
X14438333Y29741667D01*
X14533571Y29694048D01*
X15057380Y29694048D01*
X15057380Y29217858D02*
X14390714Y29217858D01*
X14057380Y29217858D02*
X14105000Y29265477D01*
X14152619Y29217858D01*
X14105000Y29170239D01*
X14057380Y29217858D01*
X14152619Y29217858D01*
X14390714Y28741667D02*
X15057380Y28741667D01*
X14485952Y28741667D02*
X14438333Y28694048D01*
X14390714Y28598810D01*
X14390714Y28455953D01*
X14438333Y28360715D01*
X14533571Y28313096D01*
X15057380Y28313096D01*
X15009761Y27455953D02*
X15057380Y27551191D01*
X15057380Y27741667D01*
X15009761Y27836905D01*
X14914523Y27884524D01*
X14533571Y27884524D01*
X14438333Y27836905D01*
X14390714Y27741667D01*
X14390714Y27551191D01*
X14438333Y27455953D01*
X14533571Y27408334D01*
X14628809Y27408334D01*
X14724047Y27884524D01*
X15057380Y26217858D02*
X14057380Y26217858D01*
X14438333Y26217858D02*
X14390714Y26122620D01*
X14390714Y25932143D01*
X14438333Y25836905D01*
X14485952Y25789286D01*
X14581190Y25741667D01*
X14866904Y25741667D01*
X14962142Y25789286D01*
X15009761Y25836905D01*
X15057380Y25932143D01*
X15057380Y26122620D01*
X15009761Y26217858D01*
X15057380Y25170239D02*
X15009761Y25265477D01*
X14962142Y25313096D01*
X14866904Y25360715D01*
X14581190Y25360715D01*
X14485952Y25313096D01*
X14438333Y25265477D01*
X14390714Y25170239D01*
X14390714Y25027381D01*
X14438333Y24932143D01*
X14485952Y24884524D01*
X14581190Y24836905D01*
X14866904Y24836905D01*
X14962142Y24884524D01*
X15009761Y24932143D01*
X15057380Y25027381D01*
X15057380Y25170239D01*
X15057380Y23979762D02*
X14533571Y23979762D01*
X14438333Y24027381D01*
X14390714Y24122620D01*
X14390714Y24313096D01*
X14438333Y24408334D01*
X15009761Y23979762D02*
X15057380Y24075001D01*
X15057380Y24313096D01*
X15009761Y24408334D01*
X14914523Y24455953D01*
X14819285Y24455953D01*
X14724047Y24408334D01*
X14676428Y24313096D01*
X14676428Y24075001D01*
X14628809Y23979762D01*
X15057380Y23503572D02*
X14390714Y23503572D01*
X14581190Y23503572D02*
X14485952Y23455953D01*
X14438333Y23408334D01*
X14390714Y23313096D01*
X14390714Y23217858D01*
X15057380Y22455953D02*
X14057380Y22455953D01*
X15009761Y22455953D02*
X15057380Y22551191D01*
X15057380Y22741667D01*
X15009761Y22836905D01*
X14962142Y22884524D01*
X14866904Y22932143D01*
X14581190Y22932143D01*
X14485952Y22884524D01*
X14438333Y22836905D01*
X14390714Y22741667D01*
X14390714Y22551191D01*
X14438333Y22455953D01*
X14390714Y21360715D02*
X14390714Y20979762D01*
X15057380Y21217858D02*
X14200238Y21217858D01*
X14105000Y21170239D01*
X14057380Y21075001D01*
X14057380Y20979762D01*
X15057380Y20503572D02*
X15009761Y20598810D01*
X14962142Y20646429D01*
X14866904Y20694048D01*
X14581190Y20694048D01*
X14485952Y20646429D01*
X14438333Y20598810D01*
X14390714Y20503572D01*
X14390714Y20360715D01*
X14438333Y20265477D01*
X14485952Y20217858D01*
X14581190Y20170239D01*
X14866904Y20170239D01*
X14962142Y20217858D01*
X15009761Y20265477D01*
X15057380Y20360715D01*
X15057380Y20503572D01*
X15057380Y19741667D02*
X14390714Y19741667D01*
X14581190Y19741667D02*
X14485952Y19694048D01*
X14438333Y19646429D01*
X14390714Y19551191D01*
X14390714Y19455953D01*
X14533571Y18360715D02*
X14533571Y18027381D01*
X15057380Y17884524D02*
X15057380Y18360715D01*
X14057380Y18360715D01*
X14057380Y17884524D01*
X15057380Y17455953D02*
X14057380Y17455953D01*
X14771666Y17122620D01*
X14057380Y16789286D01*
X15057380Y16789286D01*
X14057380Y16313096D02*
X14866904Y16313096D01*
X14962142Y16265477D01*
X15009761Y16217858D01*
X15057380Y16122620D01*
X15057380Y15932143D01*
X15009761Y15836905D01*
X14962142Y15789286D01*
X14866904Y15741667D01*
X14057380Y15741667D01*
X14057380Y15360715D02*
X14057380Y14694048D01*
X15057380Y15360715D01*
X15057380Y14694048D01*
X14485952Y14170239D02*
X14438333Y14265477D01*
X14390714Y14313096D01*
X14295476Y14360715D01*
X14247857Y14360715D01*
X14152619Y14313096D01*
X14105000Y14265477D01*
X14057380Y14170239D01*
X14057380Y13979762D01*
X14105000Y13884524D01*
X14152619Y13836905D01*
X14247857Y13789286D01*
X14295476Y13789286D01*
X14390714Y13836905D01*
X14438333Y13884524D01*
X14485952Y13979762D01*
X14485952Y14170239D01*
X14533571Y14265477D01*
X14581190Y14313096D01*
X14676428Y14360715D01*
X14866904Y14360715D01*
X14962142Y14313096D01*
X15009761Y14265477D01*
X15057380Y14170239D01*
X15057380Y13979762D01*
X15009761Y13884524D01*
X14962142Y13836905D01*
X14866904Y13789286D01*
X14676428Y13789286D01*
X14581190Y13836905D01*
X14533571Y13884524D01*
X14485952Y13979762D01*
X14057380Y13170239D02*
X14057380Y13075000D01*
X14105000Y12979762D01*
X14152619Y12932143D01*
X14247857Y12884524D01*
X14438333Y12836905D01*
X14676428Y12836905D01*
X14866904Y12884524D01*
X14962142Y12932143D01*
X15009761Y12979762D01*
X15057380Y13075000D01*
X15057380Y13170239D01*
X15009761Y13265477D01*
X14962142Y13313096D01*
X14866904Y13360715D01*
X14676428Y13408334D01*
X14438333Y13408334D01*
X14247857Y13360715D01*
X14152619Y13313096D01*
X14105000Y13265477D01*
X14057380Y13170239D01*
X16667380Y48098810D02*
X15667380Y48098810D01*
X16667380Y47670239D02*
X16143571Y47670239D01*
X16048333Y47717858D01*
X16000714Y47813096D01*
X16000714Y47955953D01*
X16048333Y48051191D01*
X16095952Y48098810D01*
X16000714Y47336905D02*
X16000714Y46955953D01*
X15667380Y47194048D02*
X16524523Y47194048D01*
X16619761Y47146429D01*
X16667380Y47051191D01*
X16667380Y46955953D01*
X16000714Y46765477D02*
X16000714Y46384524D01*
X15667380Y46622620D02*
X16524523Y46622620D01*
X16619761Y46575000D01*
X16667380Y46479762D01*
X16667380Y46384524D01*
X16000714Y46051191D02*
X17000714Y46051191D01*
X16048333Y46051191D02*
X16000714Y45955953D01*
X16000714Y45765477D01*
X16048333Y45670239D01*
X16095952Y45622620D01*
X16191190Y45575000D01*
X16476904Y45575000D01*
X16572142Y45622620D01*
X16619761Y45670239D01*
X16667380Y45765477D01*
X16667380Y45955953D01*
X16619761Y46051191D01*
X16619761Y45194048D02*
X16667380Y45098810D01*
X16667380Y44908334D01*
X16619761Y44813096D01*
X16524523Y44765477D01*
X16476904Y44765477D01*
X16381666Y44813096D01*
X16334047Y44908334D01*
X16334047Y45051191D01*
X16286428Y45146429D01*
X16191190Y45194048D01*
X16143571Y45194048D01*
X16048333Y45146429D01*
X16000714Y45051191D01*
X16000714Y44908334D01*
X16048333Y44813096D01*
X16572142Y44336905D02*
X16619761Y44289286D01*
X16667380Y44336905D01*
X16619761Y44384524D01*
X16572142Y44336905D01*
X16667380Y44336905D01*
X16048333Y44336905D02*
X16095952Y44289286D01*
X16143571Y44336905D01*
X16095952Y44384524D01*
X16048333Y44336905D01*
X16143571Y44336905D01*
X15619761Y43146429D02*
X16905476Y44003572D01*
X15619761Y42098810D02*
X16905476Y42955953D01*
X16000714Y41336905D02*
X16810238Y41336905D01*
X16905476Y41384524D01*
X16953095Y41432143D01*
X17000714Y41527381D01*
X17000714Y41670239D01*
X16953095Y41765477D01*
X16619761Y41336905D02*
X16667380Y41432143D01*
X16667380Y41622620D01*
X16619761Y41717858D01*
X16572142Y41765477D01*
X16476904Y41813096D01*
X16191190Y41813096D01*
X16095952Y41765477D01*
X16048333Y41717858D01*
X16000714Y41622620D01*
X16000714Y41432143D01*
X16048333Y41336905D01*
X16667380Y40860715D02*
X16000714Y40860715D01*
X15667380Y40860715D02*
X15715000Y40908334D01*
X15762619Y40860715D01*
X15715000Y40813096D01*
X15667380Y40860715D01*
X15762619Y40860715D01*
X16000714Y40527381D02*
X16000714Y40146429D01*
X15667380Y40384524D02*
X16524523Y40384524D01*
X16619761Y40336905D01*
X16667380Y40241667D01*
X16667380Y40146429D01*
X16667380Y39813096D02*
X15667380Y39813096D01*
X16667380Y39384524D02*
X16143571Y39384524D01*
X16048333Y39432143D01*
X16000714Y39527381D01*
X16000714Y39670239D01*
X16048333Y39765477D01*
X16095952Y39813096D01*
X16000714Y38479762D02*
X16667380Y38479762D01*
X16000714Y38908334D02*
X16524523Y38908334D01*
X16619761Y38860715D01*
X16667380Y38765477D01*
X16667380Y38622620D01*
X16619761Y38527381D01*
X16572142Y38479762D01*
X16667380Y38003572D02*
X15667380Y38003572D01*
X16048333Y38003572D02*
X16000714Y37908334D01*
X16000714Y37717858D01*
X16048333Y37622620D01*
X16095952Y37575000D01*
X16191190Y37527381D01*
X16476904Y37527381D01*
X16572142Y37575000D01*
X16619761Y37622620D01*
X16667380Y37717858D01*
X16667380Y37908334D01*
X16619761Y38003572D01*
X16572142Y37098810D02*
X16619761Y37051191D01*
X16667380Y37098810D01*
X16619761Y37146429D01*
X16572142Y37098810D01*
X16667380Y37098810D01*
X16619761Y36194048D02*
X16667380Y36289286D01*
X16667380Y36479762D01*
X16619761Y36575000D01*
X16572142Y36622620D01*
X16476904Y36670239D01*
X16191190Y36670239D01*
X16095952Y36622620D01*
X16048333Y36575000D01*
X16000714Y36479762D01*
X16000714Y36289286D01*
X16048333Y36194048D01*
X16667380Y35622620D02*
X16619761Y35717858D01*
X16572142Y35765477D01*
X16476904Y35813096D01*
X16191190Y35813096D01*
X16095952Y35765477D01*
X16048333Y35717858D01*
X16000714Y35622620D01*
X16000714Y35479762D01*
X16048333Y35384524D01*
X16095952Y35336905D01*
X16191190Y35289286D01*
X16476904Y35289286D01*
X16572142Y35336905D01*
X16619761Y35384524D01*
X16667380Y35479762D01*
X16667380Y35622620D01*
X16667380Y34860715D02*
X16000714Y34860715D01*
X16095952Y34860715D02*
X16048333Y34813096D01*
X16000714Y34717858D01*
X16000714Y34575000D01*
X16048333Y34479762D01*
X16143571Y34432143D01*
X16667380Y34432143D01*
X16143571Y34432143D02*
X16048333Y34384524D01*
X16000714Y34289286D01*
X16000714Y34146429D01*
X16048333Y34051191D01*
X16143571Y34003572D01*
X16667380Y34003572D01*
X15619761Y32813096D02*
X16905476Y33670239D01*
X16619761Y32527381D02*
X16667380Y32432143D01*
X16667380Y32241667D01*
X16619761Y32146429D01*
X16524523Y32098810D01*
X16476904Y32098810D01*
X16381666Y32146429D01*
X16334047Y32241667D01*
X16334047Y32384524D01*
X16286428Y32479762D01*
X16191190Y32527381D01*
X16143571Y32527381D01*
X16048333Y32479762D01*
X16000714Y32384524D01*
X16000714Y32241667D01*
X16048333Y32146429D01*
X16667380Y31241667D02*
X16143571Y31241667D01*
X16048333Y31289286D01*
X16000714Y31384524D01*
X16000714Y31575000D01*
X16048333Y31670239D01*
X16619761Y31241667D02*
X16667380Y31336905D01*
X16667380Y31575000D01*
X16619761Y31670239D01*
X16524523Y31717858D01*
X16429285Y31717858D01*
X16334047Y31670239D01*
X16286428Y31575000D01*
X16286428Y31336905D01*
X16238809Y31241667D01*
X16000714Y30908334D02*
X16000714Y30527381D01*
X15667380Y30765477D02*
X16524523Y30765477D01*
X16619761Y30717858D01*
X16667380Y30622620D01*
X16667380Y30527381D01*
X16667380Y30051191D02*
X16619761Y30146429D01*
X16572142Y30194048D01*
X16476904Y30241667D01*
X16191190Y30241667D01*
X16095952Y30194048D01*
X16048333Y30146429D01*
X16000714Y30051191D01*
X16000714Y29908334D01*
X16048333Y29813096D01*
X16095952Y29765477D01*
X16191190Y29717858D01*
X16476904Y29717858D01*
X16572142Y29765477D01*
X16619761Y29813096D01*
X16667380Y29908334D01*
X16667380Y30051191D01*
X16619761Y29336905D02*
X16667380Y29241667D01*
X16667380Y29051191D01*
X16619761Y28955953D01*
X16524523Y28908334D01*
X16476904Y28908334D01*
X16381666Y28955953D01*
X16334047Y29051191D01*
X16334047Y29194048D01*
X16286428Y29289286D01*
X16191190Y29336905D01*
X16143571Y29336905D01*
X16048333Y29289286D01*
X16000714Y29194048D01*
X16000714Y29051191D01*
X16048333Y28955953D01*
X16667380Y28479762D02*
X15667380Y28479762D01*
X16667380Y28051191D02*
X16143571Y28051191D01*
X16048333Y28098810D01*
X16000714Y28194048D01*
X16000714Y28336905D01*
X16048333Y28432143D01*
X16095952Y28479762D01*
X16667380Y27575000D02*
X16000714Y27575000D01*
X15667380Y27575000D02*
X15715000Y27622620D01*
X15762619Y27575000D01*
X15715000Y27527381D01*
X15667380Y27575000D01*
X15762619Y27575000D01*
X16667380Y26955953D02*
X16619761Y27051191D01*
X16572142Y27098810D01*
X16476904Y27146429D01*
X16191190Y27146429D01*
X16095952Y27098810D01*
X16048333Y27051191D01*
X16000714Y26955953D01*
X16000714Y26813096D01*
X16048333Y26717858D01*
X16095952Y26670239D01*
X16191190Y26622620D01*
X16476904Y26622620D01*
X16572142Y26670239D01*
X16619761Y26717858D01*
X16667380Y26813096D01*
X16667380Y26955953D01*
X16667380Y26194048D02*
X15667380Y26194048D01*
X16286428Y26098810D02*
X16667380Y25813096D01*
X16000714Y25813096D02*
X16381666Y26194048D01*
X16000714Y24955953D02*
X16667380Y24955953D01*
X16000714Y25384524D02*
X16524523Y25384524D01*
X16619761Y25336905D01*
X16667380Y25241667D01*
X16667380Y25098810D01*
X16619761Y25003572D01*
X16572142Y24955953D01*
X16619761Y24098810D02*
X16667380Y24194048D01*
X16667380Y24384524D01*
X16619761Y24479762D01*
X16524523Y24527381D01*
X16143571Y24527381D01*
X16048333Y24479762D01*
X16000714Y24384524D01*
X16000714Y24194048D01*
X16048333Y24098810D01*
X16143571Y24051191D01*
X16238809Y24051191D01*
X16334047Y24527381D01*
X15619761Y22908334D02*
X16905476Y23765477D01*
X16143571Y22575000D02*
X16143571Y22241667D01*
X16667380Y22098810D02*
X16667380Y22575000D01*
X15667380Y22575000D01*
X15667380Y22098810D01*
X16667380Y21670239D02*
X15667380Y21670239D01*
X16381666Y21336905D01*
X15667380Y21003572D01*
X16667380Y21003572D01*
X15667380Y20527381D02*
X16476904Y20527381D01*
X16572142Y20479762D01*
X16619761Y20432143D01*
X16667380Y20336905D01*
X16667380Y20146429D01*
X16619761Y20051191D01*
X16572142Y20003572D01*
X16476904Y19955953D01*
X15667380Y19955953D01*
X15667380Y19575000D02*
X15667380Y18908334D01*
X16667380Y19575000D01*
X16667380Y18908334D01*
X16095952Y18384524D02*
X16048333Y18479762D01*
X16000714Y18527381D01*
X15905476Y18575001D01*
X15857857Y18575001D01*
X15762619Y18527381D01*
X15715000Y18479762D01*
X15667380Y18384524D01*
X15667380Y18194048D01*
X15715000Y18098810D01*
X15762619Y18051191D01*
X15857857Y18003572D01*
X15905476Y18003572D01*
X16000714Y18051191D01*
X16048333Y18098810D01*
X16095952Y18194048D01*
X16095952Y18384524D01*
X16143571Y18479762D01*
X16191190Y18527381D01*
X16286428Y18575001D01*
X16476904Y18575001D01*
X16572142Y18527381D01*
X16619761Y18479762D01*
X16667380Y18384524D01*
X16667380Y18194048D01*
X16619761Y18098810D01*
X16572142Y18051191D01*
X16476904Y18003572D01*
X16286428Y18003572D01*
X16191190Y18051191D01*
X16143571Y18098810D01*
X16095952Y18194048D01*
X15667380Y17384524D02*
X15667380Y17289286D01*
X15715000Y17194048D01*
X15762619Y17146429D01*
X15857857Y17098810D01*
X16048333Y17051191D01*
X16286428Y17051191D01*
X16476904Y17098810D01*
X16572142Y17146429D01*
X16619761Y17194048D01*
X16667380Y17289286D01*
X16667380Y17384524D01*
X16619761Y17479762D01*
X16572142Y17527381D01*
X16476904Y17575001D01*
X16286428Y17622620D01*
X16048333Y17622620D01*
X15857857Y17575001D01*
X15762619Y17527381D01*
X15715000Y17479762D01*
X15667380Y17384524D01*
X16286428Y16622620D02*
X16286428Y15860715D01*
X15667380Y15479762D02*
X15667380Y14813096D01*
X16667380Y15479762D01*
X16667380Y14813096D01*
X16667380Y13908334D02*
X16667380Y14479762D01*
X16667380Y14194048D02*
X15667380Y14194048D01*
X15810238Y14289286D01*
X15905476Y14384524D01*
X15953095Y14479762D01*
X16095952Y13336905D02*
X16048333Y13432143D01*
X16000714Y13479762D01*
X15905476Y13527381D01*
X15857857Y13527381D01*
X15762619Y13479762D01*
X15715000Y13432143D01*
X15667380Y13336905D01*
X15667380Y13146429D01*
X15715000Y13051191D01*
X15762619Y13003572D01*
X15857857Y12955953D01*
X15905476Y12955953D01*
X16000714Y13003572D01*
X16048333Y13051191D01*
X16095952Y13146429D01*
X16095952Y13336905D01*
X16143571Y13432143D01*
X16191190Y13479762D01*
X16286428Y13527381D01*
X16476904Y13527381D01*
X16572142Y13479762D01*
X16619761Y13432143D01*
X16667380Y13336905D01*
X16667380Y13146429D01*
X16619761Y13051191D01*
X16572142Y13003572D01*
X16476904Y12955953D01*
X16286428Y12955953D01*
X16191190Y13003572D01*
X16143571Y13051191D01*
X16095952Y13146429D01*
X15667380Y12336905D02*
X15667380Y12241667D01*
X15715000Y12146429D01*
X15762619Y12098810D01*
X15857857Y12051191D01*
X16048333Y12003572D01*
X16286428Y12003572D01*
X16476904Y12051191D01*
X16572142Y12098810D01*
X16619761Y12146429D01*
X16667380Y12241667D01*
X16667380Y12336905D01*
X16619761Y12432143D01*
X16572142Y12479762D01*
X16476904Y12527381D01*
X16286428Y12575000D01*
X16048333Y12575000D01*
X15857857Y12527381D01*
X15762619Y12479762D01*
X15715000Y12432143D01*
X15667380Y12336905D01*
X16667380Y11003572D02*
X16191190Y11336905D01*
X16667380Y11575000D02*
X15667380Y11575000D01*
X15667380Y11194048D01*
X15715000Y11098810D01*
X15762619Y11051191D01*
X15857857Y11003572D01*
X16000714Y11003572D01*
X16095952Y11051191D01*
X16143571Y11098810D01*
X16191190Y11194048D01*
X16191190Y11575000D01*
X16381666Y10622620D02*
X16381666Y10146429D01*
X16667380Y10717858D02*
X15667380Y10384524D01*
X16667380Y10051191D01*
X16667380Y9717858D02*
X15667380Y9717858D01*
X16381666Y9384524D01*
X15667380Y9051191D01*
X16667380Y9051191D01*
D11*
X26095000Y54035000D02*
X24765000Y54035000D01*
X23435000Y51435000D02*
X23435000Y3115000D01*
X26095000Y3115000D02*
X23435000Y3115000D01*
X26095000Y51435000D02*
X23435000Y51435000D01*
X26095000Y51435000D02*
X26095000Y3115000D01*
X26095000Y52705000D02*
X26095000Y54035000D01*
X5775000Y52705000D02*
X5775000Y54035000D01*
X5775000Y54035000D02*
X4445000Y54035000D01*
X5775000Y51435000D02*
X3115000Y51435000D01*
X3115000Y51435000D02*
X3115000Y3115000D01*
X5775000Y51435000D02*
X5775000Y3115000D01*
X5775000Y3115000D02*
X3115000Y3115000D01*
M02*
