M48
; DRILL file {KiCad (6.0.10-0)} date 
; FORMAT={-:-/ absolute / metric / decimal}
; #@! TF.CreationDate,2023-01-08T18:49:56+09:00
; #@! TF.GenerationSoftware,Kicad,Pcbnew,(6.0.10-0)
; #@! TF.FileFunction,MixedPlating,1,2
FMAT,2
METRIC
; #@! TA.AperFunction,Plated,PTH,ViaDrill
T1C0.300
; #@! TA.AperFunction,Plated,PTH,ComponentDrill
T2C0.800
; #@! TA.AperFunction,Plated,PTH,ComponentDrill
T3C1.000
%
G90
G05
T1
X1.27Y55.88
X1.27Y27.305
X1.27Y1.27
X6.985Y6.35
X8.636Y12.991
X8.694Y17.493
X10.795Y41.275
X10.795Y34.925
X10.795Y31.115
X10.795Y13.335
X18.678Y37.465
X19.05Y41.275
X19.05Y34.925
X19.05Y31.115
X20.32Y22.225
X20.32Y15.875
X20.574Y14.097
X21.082Y6.35
X21.191Y20.955
X22.225Y6.35
X27.94Y1.27
X28.575Y47.625
X28.575Y39.37
X28.575Y34.29
X28.575Y27.94
X28.575Y23.495
X28.575Y14.605
X28.575Y12.065
X30.48Y26.035
X31.115Y19.685
X31.59Y36.322
X33.59Y17.907
X33.611Y12.998
X33.655Y26.035
X33.873Y33.932
X34.798Y14.629
X36.195Y41.275
X36.195Y17.907
X37.084Y14.605
X37.465Y29.845
X37.465Y27.305
X38.397Y11.882
X38.735Y20.955
X39.648Y15.917
X41.275Y41.275
X41.275Y34.29
X41.552Y20.955
X43.18Y32.385
X43.967Y23.105
X46.649Y16.09
X60.96Y55.88
X60.96Y9.525
T2
X6.98Y47.625
X6.98Y45.085
X6.98Y42.545
X6.98Y40.005
X6.98Y37.465
X6.98Y34.925
X6.98Y32.385
X6.98Y29.845
X6.98Y27.305
X6.98Y24.765
X6.98Y22.225
X6.98Y19.685
X6.98Y17.145
X6.98Y14.605
X6.98Y12.065
X6.98Y9.525
X18.435Y51.435
X20.935Y51.435
X22.22Y47.625
X22.22Y45.085
X22.22Y42.545
X22.22Y40.005
X22.22Y37.465
X22.22Y34.925
X22.22Y32.385
X22.22Y29.845
X22.22Y27.305
X22.22Y24.765
X22.22Y22.225
X22.22Y19.685
X22.22Y17.145
X22.22Y14.605
X22.22Y12.065
X22.22Y9.525
X31.115Y14.605
X32.385Y42.545
X32.385Y40.005
X32.385Y37.465
X32.385Y34.925
X32.385Y32.385
X32.385Y29.845
X32.385Y27.305
X32.385Y24.765
X32.385Y22.225
X34.925Y45.085
X34.925Y42.545
X34.925Y40.005
X34.925Y37.465
X34.925Y34.925
X34.925Y32.385
X34.925Y29.845
X34.925Y27.305
X34.925Y24.765
X34.925Y22.225
X34.925Y19.685
X37.465Y45.085
X37.465Y42.545
X37.465Y22.225
X37.465Y19.685
X40.005Y45.085
X40.005Y42.545
X40.005Y22.225
X40.005Y19.685
X41.275Y14.605
X42.545Y45.085
X42.545Y42.545
X42.545Y22.225
X42.545Y19.685
X43.835Y14.605
X45.085Y45.085
X45.085Y42.545
X45.085Y22.225
X45.085Y19.685
X46.335Y14.605
X47.625Y45.085
X47.625Y42.545
X47.625Y22.225
X47.625Y19.685
X48.895Y14.605
X50.165Y45.085
X50.165Y42.545
X50.165Y22.225
X50.165Y19.685
X52.705Y45.085
X52.705Y42.545
X52.705Y22.225
X52.705Y19.685
X55.245Y45.085
X55.245Y42.545
X55.245Y40.005
X55.245Y37.465
X55.245Y34.925
X55.245Y32.385
X55.245Y29.845
X55.245Y27.305
X55.245Y24.765
X55.245Y22.225
X55.245Y19.685
X57.785Y42.545
X57.785Y40.005
X57.785Y37.465
X57.785Y34.925
X57.785Y32.385
X57.785Y29.845
X57.785Y27.305
X57.785Y24.765
X57.785Y22.225
X59.055Y14.605
T3
X4.445Y52.705
X4.445Y50.165
X4.445Y47.625
X4.445Y45.085
X4.445Y42.545
X4.445Y40.005
X4.445Y37.465
X4.445Y34.925
X4.445Y32.385
X4.445Y29.845
X4.445Y27.305
X4.445Y24.765
X4.445Y22.225
X4.445Y19.685
X4.445Y17.145
X4.445Y14.605
X4.445Y12.065
X4.445Y9.525
X4.445Y6.985
X4.445Y4.445
X24.765Y52.705
X24.765Y50.165
X24.765Y47.625
X24.765Y45.085
X24.765Y42.545
X24.765Y40.005
X24.765Y37.465
X24.765Y34.925
X24.765Y32.385
X24.765Y29.845
X24.765Y27.305
X24.765Y24.765
X24.765Y22.225
X24.765Y19.685
X24.765Y17.145
X24.765Y14.605
X24.765Y12.065
X24.765Y9.525
X24.765Y6.985
X24.765Y4.445
T0
M30
