M48
; DRILL file {KiCad (6.0.10-0)} date 
; FORMAT={-:-/ absolute / metric / decimal}
; #@! TF.CreationDate,2023-02-08T15:37:43+09:00
; #@! TF.GenerationSoftware,Kicad,Pcbnew,(6.0.10-0)
; #@! TF.FileFunction,MixedPlating,1,2
FMAT,2
METRIC
; #@! TA.AperFunction,Plated,PTH,ViaDrill
T1C0.300
; #@! TA.AperFunction,Plated,PTH,ComponentDrill
T2C0.800
; #@! TA.AperFunction,Plated,PTH,ComponentDrill
T3C1.000
%
G90
G05
T1
X1.27Y55.88
X1.27Y27.305
X1.27Y1.27
X6.985Y8.255
X6.985Y3.175
X9.525Y37.465
X9.525Y32.385
X9.525Y27.305
X9.525Y17.145
X10.16Y44.45
X11.967Y40.738
X13.335Y50.165
X13.335Y47.925
X18.967Y18.652
X19.664Y16.852
X19.685Y50.165
X19.685Y47.625
X19.685Y44.45
X19.685Y37.465
X19.685Y30.48
X19.685Y27.305
X20.955Y8.255
X20.955Y3.175
X23.495Y26.058
X23.495Y23.495
X27.178Y50.165
X27.178Y47.625
X27.178Y39.37
X27.178Y32.385
X27.178Y28.575
X27.178Y23.241
X27.178Y21.082
X27.178Y17.145
X27.178Y14.605
X27.178Y10.16
X27.94Y1.27
X29.146Y24.447
X30.226Y39.37
X30.226Y32.385
X30.226Y28.575
X30.226Y23.241
X33.147Y49.403
X33.655Y21.082
X33.675Y11.583
X34.417Y12.106
X36.195Y48.768
X36.195Y43.815
X36.195Y41.529
X37.465Y17.907
X37.465Y16.383
X38.1Y31.75
X38.1Y28.575
X38.862Y30.106
X38.862Y26.543
X41.243Y28.162
X41.275Y43.18
X41.275Y37.465
X41.275Y32.385
X43.421Y13.035
X43.815Y43.18
X43.815Y37.465
X43.815Y32.385
X45.72Y27.15
X45.72Y9.525
X47.321Y15.259
X47.625Y20.32
X51.435Y20.32
X52.07Y27.305
X55.245Y49.276
X57.785Y20.32
X60.96Y55.88
X60.96Y9.525
T2
X6.985Y50.165
X6.985Y47.625
X6.985Y45.085
X6.985Y42.545
X6.985Y40.005
X6.985Y37.465
X6.985Y34.925
X6.985Y32.385
X6.985Y29.845
X6.985Y27.305
X6.985Y24.765
X6.985Y22.225
X6.985Y19.685
X6.985Y17.145
X6.985Y14.605
X6.985Y12.065
X19.705Y53.34
X22.205Y53.34
X22.225Y50.165
X22.225Y47.625
X22.225Y45.085
X22.225Y42.545
X22.225Y40.005
X22.225Y37.465
X22.225Y34.925
X22.225Y32.385
X22.225Y29.845
X22.225Y27.305
X22.225Y24.765
X22.225Y22.225
X22.225Y19.685
X22.225Y17.145
X22.225Y14.605
X22.225Y12.065
X31.115Y17.145
X31.115Y13.97
X32.385Y45.085
X32.385Y42.545
X32.385Y40.005
X32.385Y37.465
X32.385Y34.925
X32.385Y32.385
X32.385Y29.845
X32.385Y27.305
X32.385Y24.765
X34.925Y47.625
X34.925Y45.085
X34.925Y42.545
X34.925Y40.005
X34.925Y37.465
X34.925Y34.925
X34.925Y32.385
X34.925Y29.845
X34.925Y27.305
X34.925Y24.765
X34.925Y22.225
X37.465Y47.625
X37.465Y45.085
X37.465Y24.765
X37.465Y22.225
X40.005Y47.625
X40.005Y45.085
X40.005Y24.765
X40.005Y22.225
X41.275Y17.145
X41.275Y13.97
X42.545Y47.625
X42.545Y45.085
X42.545Y24.765
X42.545Y22.225
X43.835Y17.145
X45.085Y47.625
X45.085Y45.085
X45.085Y24.765
X45.085Y22.225
X46.335Y17.145
X47.625Y47.625
X47.625Y45.085
X47.625Y24.765
X47.625Y22.225
X48.895Y17.145
X50.165Y47.625
X50.165Y45.085
X50.165Y24.765
X50.165Y22.225
X52.705Y47.625
X52.705Y45.085
X52.705Y24.765
X52.705Y22.225
X55.245Y47.625
X55.245Y45.085
X55.245Y42.545
X55.245Y40.005
X55.245Y37.465
X55.245Y34.925
X55.245Y32.385
X55.245Y29.845
X55.245Y27.305
X55.245Y24.765
X55.245Y22.225
X57.785Y45.085
X57.785Y42.545
X57.785Y40.005
X57.785Y37.465
X57.785Y34.925
X57.785Y32.385
X57.785Y29.845
X57.785Y27.305
X57.785Y24.765
X59.055Y17.145
T3
X4.445Y52.705
X4.445Y50.165
X4.445Y47.625
X4.445Y45.085
X4.445Y42.545
X4.445Y40.005
X4.445Y37.465
X4.445Y34.925
X4.445Y32.385
X4.445Y29.845
X4.445Y27.305
X4.445Y24.765
X4.445Y22.225
X4.445Y19.685
X4.445Y17.145
X4.445Y14.605
X4.445Y12.065
X4.445Y9.525
X4.445Y6.985
X4.445Y4.445
X24.765Y52.705
X24.765Y50.165
X24.765Y47.625
X24.765Y45.085
X24.765Y42.545
X24.765Y40.005
X24.765Y37.465
X24.765Y34.925
X24.765Y32.385
X24.765Y29.845
X24.765Y27.305
X24.765Y24.765
X24.765Y22.225
X24.765Y19.685
X24.765Y17.145
X24.765Y14.605
X24.765Y12.065
X24.765Y9.525
X24.765Y6.985
X24.765Y4.445
T0
M30
