G04 #@! TF.GenerationSoftware,KiCad,Pcbnew,(6.0.10-0)*
G04 #@! TF.CreationDate,2023-02-08T15:37:40+09:00*
G04 #@! TF.ProjectId,MEZZ180RAM,4d455a5a-3138-4305-9241-4d2e6b696361,A*
G04 #@! TF.SameCoordinates,PX5f5e100PY8f0d180*
G04 #@! TF.FileFunction,Legend,Top*
G04 #@! TF.FilePolarity,Positive*
%FSLAX46Y46*%
G04 Gerber Fmt 4.6, Leading zero omitted, Abs format (unit mm)*
G04 Created by KiCad (PCBNEW (6.0.10-0)) date 2023-02-08 15:37:40*
%MOMM*%
%LPD*%
G01*
G04 APERTURE LIST*
%ADD10C,0.150000*%
%ADD11C,0.200000*%
%ADD12C,0.120000*%
G04 APERTURE END LIST*
D10*
X13335000Y57150000D02*
G75*
G03*
X15875000Y57150000I1270000J0D01*
G01*
X46085000Y50800000D02*
X45085000Y49530000D01*
X45085000Y49530000D02*
X44085000Y50800000D01*
X44085000Y50800000D02*
X46085000Y50800000D01*
X43085000Y41357620D02*
X43751666Y41357620D01*
X43085000Y40357620D01*
X43751666Y40357620D01*
X44132619Y40357620D02*
X44132619Y41024286D01*
X44132619Y41357620D02*
X44085000Y41310000D01*
X44132619Y41262381D01*
X44180238Y41310000D01*
X44132619Y41357620D01*
X44132619Y41262381D01*
X45085000Y40357620D02*
X44608809Y40357620D01*
X44608809Y41357620D01*
X45608809Y41357620D02*
X45799285Y41357620D01*
X45894523Y41310000D01*
X45989761Y41214762D01*
X46037380Y41024286D01*
X46037380Y40690953D01*
X45989761Y40500477D01*
X45894523Y40405239D01*
X45799285Y40357620D01*
X45608809Y40357620D01*
X45513571Y40405239D01*
X45418333Y40500477D01*
X45370714Y40690953D01*
X45370714Y41024286D01*
X45418333Y41214762D01*
X45513571Y41310000D01*
X45608809Y41357620D01*
X46989761Y41310000D02*
X46894523Y41357620D01*
X46751666Y41357620D01*
X46608809Y41310000D01*
X46513571Y41214762D01*
X46465952Y41119524D01*
X46418333Y40929048D01*
X46418333Y40786191D01*
X46465952Y40595715D01*
X46513571Y40500477D01*
X46608809Y40405239D01*
X46751666Y40357620D01*
X46846904Y40357620D01*
X46989761Y40405239D01*
X47037380Y40452858D01*
X47037380Y40786191D01*
X46846904Y40786191D01*
X43323095Y39747620D02*
X43989761Y39747620D01*
X43323095Y38747620D01*
X43989761Y38747620D01*
X44894523Y38747620D02*
X44323095Y38747620D01*
X44608809Y38747620D02*
X44608809Y39747620D01*
X44513571Y39604762D01*
X44418333Y39509524D01*
X44323095Y39461905D01*
X45465952Y39319048D02*
X45370714Y39366667D01*
X45323095Y39414286D01*
X45275476Y39509524D01*
X45275476Y39557143D01*
X45323095Y39652381D01*
X45370714Y39700000D01*
X45465952Y39747620D01*
X45656428Y39747620D01*
X45751666Y39700000D01*
X45799285Y39652381D01*
X45846904Y39557143D01*
X45846904Y39509524D01*
X45799285Y39414286D01*
X45751666Y39366667D01*
X45656428Y39319048D01*
X45465952Y39319048D01*
X45370714Y39271429D01*
X45323095Y39223810D01*
X45275476Y39128572D01*
X45275476Y38938096D01*
X45323095Y38842858D01*
X45370714Y38795239D01*
X45465952Y38747620D01*
X45656428Y38747620D01*
X45751666Y38795239D01*
X45799285Y38842858D01*
X45846904Y38938096D01*
X45846904Y39128572D01*
X45799285Y39223810D01*
X45751666Y39271429D01*
X45656428Y39319048D01*
X46465952Y39747620D02*
X46561190Y39747620D01*
X46656428Y39700000D01*
X46704047Y39652381D01*
X46751666Y39557143D01*
X46799285Y39366667D01*
X46799285Y39128572D01*
X46751666Y38938096D01*
X46704047Y38842858D01*
X46656428Y38795239D01*
X46561190Y38747620D01*
X46465952Y38747620D01*
X46370714Y38795239D01*
X46323095Y38842858D01*
X46275476Y38938096D01*
X46227857Y39128572D01*
X46227857Y39366667D01*
X46275476Y39557143D01*
X46323095Y39652381D01*
X46370714Y39700000D01*
X46465952Y39747620D01*
X2825714Y52252620D02*
X2254285Y52252620D01*
X2540000Y52252620D02*
X2540000Y53252620D01*
X2444761Y53109762D01*
X2349523Y53014524D01*
X2254285Y52966905D01*
X10962142Y36742620D02*
X11533571Y36742620D01*
X11247857Y35742620D02*
X11247857Y36742620D01*
X12438333Y35837858D02*
X12390714Y35790239D01*
X12247857Y35742620D01*
X12152619Y35742620D01*
X12009761Y35790239D01*
X11914523Y35885477D01*
X11866904Y35980715D01*
X11819285Y36171191D01*
X11819285Y36314048D01*
X11866904Y36504524D01*
X11914523Y36599762D01*
X12009761Y36695000D01*
X12152619Y36742620D01*
X12247857Y36742620D01*
X12390714Y36695000D01*
X12438333Y36647381D01*
X13343095Y36742620D02*
X12866904Y36742620D01*
X12819285Y36266429D01*
X12866904Y36314048D01*
X12962142Y36361667D01*
X13200238Y36361667D01*
X13295476Y36314048D01*
X13343095Y36266429D01*
X13390714Y36171191D01*
X13390714Y35933096D01*
X13343095Y35837858D01*
X13295476Y35790239D01*
X13200238Y35742620D01*
X12962142Y35742620D01*
X12866904Y35790239D01*
X12819285Y35837858D01*
X14295476Y36742620D02*
X13819285Y36742620D01*
X13771666Y36266429D01*
X13819285Y36314048D01*
X13914523Y36361667D01*
X14152619Y36361667D01*
X14247857Y36314048D01*
X14295476Y36266429D01*
X14343095Y36171191D01*
X14343095Y35933096D01*
X14295476Y35837858D01*
X14247857Y35790239D01*
X14152619Y35742620D01*
X13914523Y35742620D01*
X13819285Y35790239D01*
X13771666Y35837858D01*
X15295476Y35742620D02*
X14724047Y35742620D01*
X15009761Y35742620D02*
X15009761Y36742620D01*
X14914523Y36599762D01*
X14819285Y36504524D01*
X14724047Y36456905D01*
X15914523Y36742620D02*
X16009761Y36742620D01*
X16105000Y36695000D01*
X16152619Y36647381D01*
X16200238Y36552143D01*
X16247857Y36361667D01*
X16247857Y36123572D01*
X16200238Y35933096D01*
X16152619Y35837858D01*
X16105000Y35790239D01*
X16009761Y35742620D01*
X15914523Y35742620D01*
X15819285Y35790239D01*
X15771666Y35837858D01*
X15724047Y35933096D01*
X15676428Y36123572D01*
X15676428Y36361667D01*
X15724047Y36552143D01*
X15771666Y36647381D01*
X15819285Y36695000D01*
X15914523Y36742620D01*
X16866904Y36742620D02*
X16962142Y36742620D01*
X17057380Y36695000D01*
X17105000Y36647381D01*
X17152619Y36552143D01*
X17200238Y36361667D01*
X17200238Y36123572D01*
X17152619Y35933096D01*
X17105000Y35837858D01*
X17057380Y35790239D01*
X16962142Y35742620D01*
X16866904Y35742620D01*
X16771666Y35790239D01*
X16724047Y35837858D01*
X16676428Y35933096D01*
X16628809Y36123572D01*
X16628809Y36361667D01*
X16676428Y36552143D01*
X16724047Y36647381D01*
X16771666Y36695000D01*
X16866904Y36742620D01*
X18152619Y35742620D02*
X17581190Y35742620D01*
X17866904Y35742620D02*
X17866904Y36742620D01*
X17771666Y36599762D01*
X17676428Y36504524D01*
X17581190Y36456905D01*
D11*
X43085000Y52162143D02*
X42399285Y52162143D01*
X42742142Y52162143D02*
X42742142Y53362143D01*
X42627857Y53190715D01*
X42513571Y53076429D01*
X42399285Y53019286D01*
X43542142Y53247858D02*
X43599285Y53305000D01*
X43713571Y53362143D01*
X43999285Y53362143D01*
X44113571Y53305000D01*
X44170714Y53247858D01*
X44227857Y53133572D01*
X44227857Y53019286D01*
X44170714Y52847858D01*
X43485000Y52162143D01*
X44227857Y52162143D01*
X44913571Y52847858D02*
X44799285Y52905000D01*
X44742142Y52962143D01*
X44685000Y53076429D01*
X44685000Y53133572D01*
X44742142Y53247858D01*
X44799285Y53305000D01*
X44913571Y53362143D01*
X45142142Y53362143D01*
X45256428Y53305000D01*
X45313571Y53247858D01*
X45370714Y53133572D01*
X45370714Y53076429D01*
X45313571Y52962143D01*
X45256428Y52905000D01*
X45142142Y52847858D01*
X44913571Y52847858D01*
X44799285Y52790715D01*
X44742142Y52733572D01*
X44685000Y52619286D01*
X44685000Y52390715D01*
X44742142Y52276429D01*
X44799285Y52219286D01*
X44913571Y52162143D01*
X45142142Y52162143D01*
X45256428Y52219286D01*
X45313571Y52276429D01*
X45370714Y52390715D01*
X45370714Y52619286D01*
X45313571Y52733572D01*
X45256428Y52790715D01*
X45142142Y52847858D01*
X45885000Y52162143D02*
X45885000Y53362143D01*
X46570714Y52162143D02*
X46056428Y52847858D01*
X46570714Y53362143D02*
X45885000Y52676429D01*
X47485000Y52790715D02*
X47656428Y52733572D01*
X47713571Y52676429D01*
X47770714Y52562143D01*
X47770714Y52390715D01*
X47713571Y52276429D01*
X47656428Y52219286D01*
X47542142Y52162143D01*
X47085000Y52162143D01*
X47085000Y53362143D01*
X47485000Y53362143D01*
X47599285Y53305000D01*
X47656428Y53247858D01*
X47713571Y53133572D01*
X47713571Y53019286D01*
X47656428Y52905000D01*
X47599285Y52847858D01*
X47485000Y52790715D01*
X47085000Y52790715D01*
X39485000Y54067143D02*
X39485000Y55267143D01*
X39885000Y54410000D01*
X40285000Y55267143D01*
X40285000Y54067143D01*
X40856428Y54695715D02*
X41256428Y54695715D01*
X41427857Y54067143D02*
X40856428Y54067143D01*
X40856428Y55267143D01*
X41427857Y55267143D01*
X41827857Y55267143D02*
X42627857Y55267143D01*
X41827857Y54067143D01*
X42627857Y54067143D01*
X42970714Y55267143D02*
X43770714Y55267143D01*
X42970714Y54067143D01*
X43770714Y54067143D01*
X44856428Y54067143D02*
X44170714Y54067143D01*
X44513571Y54067143D02*
X44513571Y55267143D01*
X44399285Y55095715D01*
X44285000Y54981429D01*
X44170714Y54924286D01*
X45542142Y54752858D02*
X45427857Y54810000D01*
X45370714Y54867143D01*
X45313571Y54981429D01*
X45313571Y55038572D01*
X45370714Y55152858D01*
X45427857Y55210000D01*
X45542142Y55267143D01*
X45770714Y55267143D01*
X45885000Y55210000D01*
X45942142Y55152858D01*
X45999285Y55038572D01*
X45999285Y54981429D01*
X45942142Y54867143D01*
X45885000Y54810000D01*
X45770714Y54752858D01*
X45542142Y54752858D01*
X45427857Y54695715D01*
X45370714Y54638572D01*
X45313571Y54524286D01*
X45313571Y54295715D01*
X45370714Y54181429D01*
X45427857Y54124286D01*
X45542142Y54067143D01*
X45770714Y54067143D01*
X45885000Y54124286D01*
X45942142Y54181429D01*
X45999285Y54295715D01*
X45999285Y54524286D01*
X45942142Y54638572D01*
X45885000Y54695715D01*
X45770714Y54752858D01*
X46742142Y55267143D02*
X46856428Y55267143D01*
X46970714Y55210000D01*
X47027857Y55152858D01*
X47085000Y55038572D01*
X47142142Y54810000D01*
X47142142Y54524286D01*
X47085000Y54295715D01*
X47027857Y54181429D01*
X46970714Y54124286D01*
X46856428Y54067143D01*
X46742142Y54067143D01*
X46627857Y54124286D01*
X46570714Y54181429D01*
X46513571Y54295715D01*
X46456428Y54524286D01*
X46456428Y54810000D01*
X46513571Y55038572D01*
X46570714Y55152858D01*
X46627857Y55210000D01*
X46742142Y55267143D01*
X48342142Y54067143D02*
X47942142Y54638572D01*
X47656428Y54067143D02*
X47656428Y55267143D01*
X48113571Y55267143D01*
X48227857Y55210000D01*
X48285000Y55152858D01*
X48342142Y55038572D01*
X48342142Y54867143D01*
X48285000Y54752858D01*
X48227857Y54695715D01*
X48113571Y54638572D01*
X47656428Y54638572D01*
X48799285Y54410000D02*
X49370714Y54410000D01*
X48685000Y54067143D02*
X49085000Y55267143D01*
X49485000Y54067143D01*
X49885000Y54067143D02*
X49885000Y55267143D01*
X50285000Y54410000D01*
X50685000Y55267143D01*
X50685000Y54067143D01*
D10*
X28408333Y13517620D02*
X28075000Y13993810D01*
X27836904Y13517620D02*
X27836904Y14517620D01*
X28217857Y14517620D01*
X28313095Y14470000D01*
X28360714Y14422381D01*
X28408333Y14327143D01*
X28408333Y14184286D01*
X28360714Y14089048D01*
X28313095Y14041429D01*
X28217857Y13993810D01*
X27836904Y13993810D01*
X28789285Y14422381D02*
X28836904Y14470000D01*
X28932142Y14517620D01*
X29170238Y14517620D01*
X29265476Y14470000D01*
X29313095Y14422381D01*
X29360714Y14327143D01*
X29360714Y14231905D01*
X29313095Y14089048D01*
X28741666Y13517620D01*
X29360714Y13517620D01*
X13843095Y29122620D02*
X13843095Y28313096D01*
X13890714Y28217858D01*
X13938333Y28170239D01*
X14033571Y28122620D01*
X14224047Y28122620D01*
X14319285Y28170239D01*
X14366904Y28217858D01*
X14414523Y28313096D01*
X14414523Y29122620D01*
X14843095Y29027381D02*
X14890714Y29075000D01*
X14985952Y29122620D01*
X15224047Y29122620D01*
X15319285Y29075000D01*
X15366904Y29027381D01*
X15414523Y28932143D01*
X15414523Y28836905D01*
X15366904Y28694048D01*
X14795476Y28122620D01*
X15414523Y28122620D01*
X44918333Y14247858D02*
X44870714Y14200239D01*
X44727857Y14152620D01*
X44632619Y14152620D01*
X44489761Y14200239D01*
X44394523Y14295477D01*
X44346904Y14390715D01*
X44299285Y14581191D01*
X44299285Y14724048D01*
X44346904Y14914524D01*
X44394523Y15009762D01*
X44489761Y15105000D01*
X44632619Y15152620D01*
X44727857Y15152620D01*
X44870714Y15105000D01*
X44918333Y15057381D01*
X45299285Y15057381D02*
X45346904Y15105000D01*
X45442142Y15152620D01*
X45680238Y15152620D01*
X45775476Y15105000D01*
X45823095Y15057381D01*
X45870714Y14962143D01*
X45870714Y14866905D01*
X45823095Y14724048D01*
X45251666Y14152620D01*
X45870714Y14152620D01*
X28408333Y16692620D02*
X28075000Y17168810D01*
X27836904Y16692620D02*
X27836904Y17692620D01*
X28217857Y17692620D01*
X28313095Y17645000D01*
X28360714Y17597381D01*
X28408333Y17502143D01*
X28408333Y17359286D01*
X28360714Y17264048D01*
X28313095Y17216429D01*
X28217857Y17168810D01*
X27836904Y17168810D01*
X29360714Y16692620D02*
X28789285Y16692620D01*
X29075000Y16692620D02*
X29075000Y17692620D01*
X28979761Y17549762D01*
X28884523Y17454524D01*
X28789285Y17406905D01*
X44323095Y29122620D02*
X44323095Y28313096D01*
X44370714Y28217858D01*
X44418333Y28170239D01*
X44513571Y28122620D01*
X44704047Y28122620D01*
X44799285Y28170239D01*
X44846904Y28217858D01*
X44894523Y28313096D01*
X44894523Y29122620D01*
X45894523Y28122620D02*
X45323095Y28122620D01*
X45608809Y28122620D02*
X45608809Y29122620D01*
X45513571Y28979762D01*
X45418333Y28884524D01*
X45323095Y28836905D01*
X53808333Y14322620D02*
X53475000Y14798810D01*
X53236904Y14322620D02*
X53236904Y15322620D01*
X53617857Y15322620D01*
X53713095Y15275000D01*
X53760714Y15227381D01*
X53808333Y15132143D01*
X53808333Y14989286D01*
X53760714Y14894048D01*
X53713095Y14846429D01*
X53617857Y14798810D01*
X53236904Y14798810D01*
X54141666Y15322620D02*
X54760714Y15322620D01*
X54427380Y14941667D01*
X54570238Y14941667D01*
X54665476Y14894048D01*
X54713095Y14846429D01*
X54760714Y14751191D01*
X54760714Y14513096D01*
X54713095Y14417858D01*
X54665476Y14370239D01*
X54570238Y14322620D01*
X54284523Y14322620D01*
X54189285Y14370239D01*
X54141666Y14417858D01*
X17613333Y52982858D02*
X17565714Y52935239D01*
X17422857Y52887620D01*
X17327619Y52887620D01*
X17184761Y52935239D01*
X17089523Y53030477D01*
X17041904Y53125715D01*
X16994285Y53316191D01*
X16994285Y53459048D01*
X17041904Y53649524D01*
X17089523Y53744762D01*
X17184761Y53840000D01*
X17327619Y53887620D01*
X17422857Y53887620D01*
X17565714Y53840000D01*
X17613333Y53792381D01*
X18565714Y52887620D02*
X17994285Y52887620D01*
X18280000Y52887620D02*
X18280000Y53887620D01*
X18184761Y53744762D01*
X18089523Y53649524D01*
X17994285Y53601905D01*
D12*
X32925000Y12600000D02*
X39465000Y12600000D01*
X32155000Y13970000D02*
X32925000Y13970000D01*
X32925000Y15340000D02*
X32925000Y12600000D01*
X39465000Y15340000D02*
X32925000Y15340000D01*
X40235000Y13970000D02*
X39465000Y13970000D01*
X39465000Y12600000D02*
X39465000Y15340000D01*
X13605000Y51495000D02*
X8145000Y51495000D01*
X21065000Y10735000D02*
X21065000Y51495000D01*
X8145000Y10735000D02*
X21065000Y10735000D01*
X8145000Y51495000D02*
X8145000Y10735000D01*
X21065000Y51495000D02*
X15605000Y51495000D01*
X13605000Y51495000D02*
G75*
G03*
X15605000Y51495000I1000000J0D01*
G01*
X47105000Y15725000D02*
X43065000Y15725000D01*
X43065000Y17940000D02*
X43065000Y18565000D01*
X47105000Y18565000D02*
X43065000Y18565000D01*
X47105000Y17940000D02*
X47105000Y18565000D01*
X47105000Y15725000D02*
X47105000Y16350000D01*
X43065000Y15725000D02*
X43065000Y16350000D01*
X40235000Y17145000D02*
X39465000Y17145000D01*
X39465000Y18515000D02*
X32925000Y18515000D01*
X32925000Y18515000D02*
X32925000Y15775000D01*
X39465000Y15775000D02*
X39465000Y18515000D01*
X32925000Y15775000D02*
X39465000Y15775000D01*
X32155000Y17145000D02*
X32925000Y17145000D01*
X29460000Y19300000D02*
X60710000Y19300000D01*
X44085000Y50550000D02*
X30460000Y50550000D01*
X30460000Y50550000D02*
X29460000Y49550000D01*
X29460000Y49550000D02*
X29460000Y19300000D01*
X60710000Y19300000D02*
X60710000Y50550000D01*
X60710000Y50550000D02*
X46085000Y50550000D01*
X58015000Y17145000D02*
X57245000Y17145000D01*
X57245000Y15775000D02*
X57245000Y18515000D01*
X57245000Y18515000D02*
X50705000Y18515000D01*
X50705000Y18515000D02*
X50705000Y15775000D01*
X50705000Y15775000D02*
X57245000Y15775000D01*
X49935000Y17145000D02*
X50705000Y17145000D01*
X22975000Y54760000D02*
X18935000Y54760000D01*
X22975000Y51920000D02*
X22975000Y52545000D01*
X18935000Y51920000D02*
X18935000Y52545000D01*
X22975000Y51920000D02*
X18935000Y51920000D01*
X22975000Y54135000D02*
X22975000Y54760000D01*
X18935000Y54135000D02*
X18935000Y54760000D01*
M02*
